<svg width="36" height="36" viewBox="0 0 36 36" fill="none" xmlns="http://www.w3.org/2000/svg">
<path d="M10 26H26V10H18H10V26ZM13 13H18H23V18V23H18H13V18V13Z" fill="white"/>
<path d="M6.54539 36L9.81812 36L9.81812 26.1818L-6.58989e-05 26.1818L-6.6185e-05 29.4545L6.54539 29.4545L6.54539 36Z" fill="white"/>
<path d="M6.54539 6.54539L-6.64711e-05 6.54539L-6.67572e-05 9.81811L9.81812 9.81812L9.81812 -6.67572e-05L6.54539 -6.70433e-05L6.54539 6.54539Z" fill="white"/>
<path d="M29.4545 29.4545L36 29.4545L36 26.1818L26.1818 26.1818L26.1818 36L29.4545 36L29.4545 29.4545Z" fill="white"/>
<path d="M36 9.81812L36 6.54539L29.4545 6.54539L29.4545 -6.73294e-05L26.1818 -6.76155e-05L26.1818 9.81811L36 9.81812Z" fill="white"/>
</svg>
