<svg width="21" height="37" viewBox="0 0 21 37" fill="none" xmlns="http://www.w3.org/2000/svg">
<path d="M19.963 0.608118C19.337 0.320287 18.6011 0.423906 18.079 0.872922L6.88138 10.4956H1.76223C0.789008 10.4956 0 11.2844 0 12.2579V24.7424C0 25.7159 0.789008 26.5046 1.76223 26.5046H6.88138L18.079 36.1273C18.4052 36.4074 18.8142 36.5531 19.228 36.5531C19.4771 36.5531 19.7278 36.5002 19.963 36.3921C20.5889 36.1048 20.99 35.4793 20.99 34.7909V2.2094C20.99 1.52095 20.5887 0.895243 19.963 0.608118ZM3.52445 14.0201H5.77235V22.9802H3.52445V14.0201ZM17.4656 30.9527L9.29681 23.933V13.0671L17.4656 6.04729V30.9527Z" fill="white"/>
</svg>
