<svg width="56" height="56" viewBox="0 0 56 56" fill="none" xmlns="http://www.w3.org/2000/svg">
<path d="M49.9505 7.19629H35.7721C32.5697 7.19629 29.7313 8.78267 28.0012 11.2112C26.2712 8.78267 23.4328 7.19629 20.2303 7.19629H17.0217V10.8731H20.2303C23.4563 10.8731 26.0582 13.4564 26.0582 16.6824V35.5864C26.0582 38.8037 23.4638 41.4489 20.2464 41.4489H6.05201C4.76533 41.4489 3.67802 40.374 3.67802 39.0873V13.1641C3.67802 12.3641 4.09783 11.6718 4.72817 11.2644V7.34118C1.99628 7.93561 0 10.3009 0 13.1641L0.105263 45.1183C0.105263 47.4254 1.93189 49.3288 4.23653 49.3288H23.1678C23.2384 50.6947 24.3703 51.7449 25.7548 51.7449H30.3988C31.7858 51.7449 32.9164 50.6935 32.987 49.3288H51.7635C54.0681 49.3288 55.8947 47.4254 55.8947 45.1183L56 13.1641C56.0025 9.84521 53.2693 7.19629 49.9505 7.19629ZM52.3245 39.0873C52.3245 40.374 51.2372 41.4489 49.9505 41.4489H35.756C32.5387 41.4489 29.9455 38.8025 29.9455 35.5864V16.6824C29.9455 13.4564 32.5474 10.8731 35.7734 10.8731H49.9517C51.2384 10.8731 52.3257 11.8786 52.3257 13.1653L52.3245 39.0873Z" fill="black"/>
<path d="M7.70158 18.8978C7.80684 18.9399 7.92573 18.961 8.03595 18.961C8.26505 18.961 8.49291 18.8693 8.66009 18.6997L10.2477 17.0699C10.4099 16.9028 10.6353 16.8086 10.8669 16.8086C11.0997 16.8086 11.3239 16.9028 11.4861 17.0699L13.0712 18.6997C13.2384 18.8693 13.4613 18.961 13.6904 18.961C13.7982 18.961 13.9356 18.9399 14.0397 18.8978C14.3654 18.7653 14.6044 18.4495 14.6044 18.0978V5.81422C14.6044 4.95106 13.8539 4.25385 12.9907 4.25385H8.74307C7.88115 4.25385 7.14307 4.95106 7.14307 5.81422V18.0978C7.1443 18.4495 7.37712 18.7653 7.70158 18.8978Z" fill="black"/>
</svg>
