<svg width="38" height="38" viewBox="0 0 38 38" fill="none" xmlns="http://www.w3.org/2000/svg">
<path d="M37.7596 16.1183C37.6695 15.5247 37.2602 15.0295 36.6951 14.8291L33.7015 13.7646C33.5244 13.263 33.3236 12.7754 33.1009 12.3037L34.4633 9.43681C34.7204 8.89619 34.6593 8.25678 34.3043 7.7733C33.1561 6.21163 31.7842 4.83968 30.2266 3.69673C29.7427 3.34148 29.1055 3.28107 28.5638 3.53884L25.6986 4.90009C25.2269 4.67743 24.7387 4.47702 24.2366 4.29994L23.1718 1.30592C22.9713 0.741962 22.4774 0.333717 21.8851 0.242559C19.7806 -0.0808531 18.2231 -0.0808531 16.1153 0.242559C15.5237 0.333717 15.0291 0.741962 14.8287 1.30592L13.7638 4.29994C13.2618 4.47702 12.7735 4.67743 12.3022 4.90009L9.43599 3.53884C8.89537 3.28129 8.25705 3.34169 7.77356 3.69673C6.21604 4.83968 4.8441 6.21163 3.69591 7.7733C3.34065 8.25678 3.27981 8.89597 3.53693 9.43681L4.89927 12.3037C4.67661 12.7745 4.4762 13.2632 4.29868 13.7646L1.30466 14.8301C0.74005 15.0306 0.331368 15.5256 0.240646 16.1183C0.0773046 17.1913 0.000976562 18.1061 0.000976562 19.0011C0.000976562 19.8948 0.0773046 20.811 0.240646 21.8839C0.330713 22.4776 0.74005 22.9728 1.30509 23.1732L4.29868 24.2377C4.4762 24.7401 4.67727 25.228 4.89927 25.6997L3.53693 28.5655C3.27981 29.1061 3.34087 29.7455 3.69547 30.2279C4.84213 31.7885 6.21407 33.1604 7.77356 34.3056C8.25705 34.6608 8.89537 34.7223 9.43642 34.4634L12.3016 33.1022C12.7733 33.3249 13.2615 33.5253 13.7636 33.7023L14.8285 36.6964C15.0289 37.2603 15.5228 37.6686 16.1151 37.7597C17.168 37.922 18.1114 38.0005 18.9999 38.0005C19.8883 38.0005 20.832 37.922 21.8846 37.7597C22.4767 37.6686 22.9709 37.2603 23.1713 36.6964L24.2362 33.7023C24.7382 33.5253 25.2265 33.3249 25.6982 33.1022L28.5633 34.4634C29.1051 34.7221 29.7434 34.6606 30.2269 34.3056C31.7881 33.1585 33.16 31.7865 34.3045 30.2279C34.6591 29.7455 34.7202 29.1061 34.4631 28.5655L33.1007 25.6997C33.3234 25.228 33.5242 24.739 33.7013 24.2377L36.6949 23.1732C37.2599 22.9728 37.6693 22.4778 37.7593 21.8839C37.9227 20.811 37.999 19.8951 37.999 19.0011C37.999 18.1072 37.9229 17.1911 37.7596 16.1183ZM34.6637 20.4385L31.8553 21.4373C31.3644 21.6111 30.9869 22.0098 30.839 22.5103C30.5882 23.3584 30.258 24.1609 29.8568 24.8967C29.6077 25.3547 29.5922 25.904 29.816 26.3746L31.0898 29.0538C30.4744 29.7928 29.7938 30.4745 29.0536 31.0893L26.3749 29.817C25.9036 29.5911 25.356 29.6092 24.8974 29.8574C24.1605 30.2582 23.3576 30.5879 22.5088 30.8392C22.0094 30.9866 21.6107 31.3639 21.4365 31.8548L20.4373 34.6643C19.4173 34.7681 18.5829 34.7681 17.563 34.6643L16.5637 31.8548C16.3893 31.365 15.9906 30.9864 15.4914 30.8392C14.6422 30.5879 13.8386 30.2582 13.1028 29.8574C12.6442 29.6072 12.0955 29.5913 11.6253 29.817L8.94662 31.0904C8.20711 30.4743 7.52648 29.7937 6.9104 29.0538L8.18421 26.3746C8.40796 25.9038 8.39248 25.3547 8.14343 24.8967C7.74325 24.1631 7.41286 23.3595 7.1612 22.5092C7.01334 22.0098 6.63541 21.6111 6.14494 21.4373L3.33651 20.4385C3.28352 19.9275 3.258 19.4567 3.258 19.0009C3.258 18.5451 3.28352 18.0754 3.33651 17.5644L6.1456 16.5648C6.63584 16.3909 7.01334 15.9923 7.1612 15.4929C7.41242 14.6448 7.74282 13.8412 8.14343 13.1043C8.39248 12.6474 8.40796 12.097 8.18421 11.6274L6.9104 8.94831C7.52692 8.20837 8.20754 7.52665 8.94662 6.91166L11.6264 8.18503C12.0955 8.41096 12.6463 8.39286 13.1039 8.14469C13.8392 7.74386 14.6422 7.41412 15.4914 7.16289C15.9908 7.01547 16.3895 6.6371 16.5637 6.14729L17.563 3.33777C18.5733 3.23287 19.4092 3.23287 20.4373 3.33777L21.4365 6.14729C21.611 6.6371 22.0096 7.01569 22.5088 7.16289C23.358 7.41412 24.1616 7.74386 24.8974 8.14469C25.356 8.39482 25.9036 8.41074 26.3749 8.18503L29.0536 6.91166C29.7927 7.52665 30.4733 8.20837 31.0898 8.94831L29.816 11.6274C29.5922 12.0972 29.6077 12.6474 29.8568 13.1043C30.2587 13.8433 30.5889 14.6459 30.839 15.4918C30.9869 15.9923 31.3644 16.3909 31.8553 16.5648L34.6637 17.5636C34.7167 18.0745 34.7422 18.5454 34.7422 19.0011C34.7422 19.4569 34.7167 19.9275 34.6637 20.4385Z" fill="white"/>
<path d="M19.0002 11.0789C14.8431 11.0789 11.4609 14.4608 11.4609 18.6181C11.4609 22.7754 14.8429 26.1573 19.0002 26.1573C23.1574 26.1573 26.5394 22.7754 26.5394 18.6181C26.5394 14.4608 23.1572 11.0789 19.0002 11.0789ZM19.0002 22.9003C16.639 22.9003 14.718 20.9793 14.718 18.6181C14.718 16.2569 16.639 14.3359 19.0002 14.3359C21.3613 14.3359 23.2824 16.2569 23.2824 18.6181C23.2824 20.9793 21.3613 22.9003 19.0002 22.9003Z" fill="white"/>
</svg>
