<svg width="191" height="191" viewBox="0 0 191 191" fill="none" xmlns="http://www.w3.org/2000/svg">
<g clip-path="url(#clip0_20_2)">
<g filter="url(#filter0_d_20_2)">
<circle cx="104.5" cy="102.5" r="151.5" fill="#8144D6"/>
</g>
<path d="M21.3049 23.3416L32.9279 -8.18403L38.3323 -6.19152L33.268 7.54465L41.3746 10.5334L46.4389 -3.20275L51.8433 -1.21024L40.2203 30.3154L34.8159 28.3229L40.0463 14.1364L31.9397 11.1476L26.7093 25.3341L21.3049 23.3416ZM51.9696 35.1588C50.7086 34.6939 49.6096 34.067 48.6726 33.2782C47.7657 32.5004 47.1851 31.4849 46.931 30.2316C46.6879 28.9483 46.9261 27.3308 47.6456 25.3792C48.3651 23.4277 49.2283 22.0577 50.2352 21.2693C51.2832 20.462 52.4346 20.068 53.6894 20.0872C54.9742 20.1175 56.3222 20.3928 57.7334 20.9131C58.4239 21.1677 59.0679 21.4563 59.6652 21.7788C60.2925 22.1124 60.8692 22.4444 61.3954 22.7748L62.0596 20.9734C62.7238 19.1719 62.7462 17.8159 62.1269 16.9055C61.5076 15.9951 60.4624 15.2687 58.9912 14.7262L54.4875 13.0658L55.3177 10.814C56.0969 10.8284 57.015 10.9282 58.0722 11.1133C59.1595 11.3095 60.1535 11.5737 61.0542 11.9058C63.0959 12.6585 64.7148 13.4941 65.9109 14.4126C67.1481 15.3121 67.9072 16.4446 68.1882 17.8101C68.4803 19.1456 68.2389 20.8642 67.464 22.9659L61.8185 38.2783L57.9904 36.867L57.813 35.2668L57.5878 35.1838C56.9414 35.457 56.1409 35.6394 55.1863 35.7308C54.2729 35.8033 53.2006 35.6126 51.9696 35.1588ZM54.9334 32.6704C55.5039 32.8807 56.0325 32.9733 56.5192 32.9481C57.0471 32.904 57.4548 32.8156 57.7425 32.6829L60.3992 25.477L57.9222 24.5638C57.4117 24.3756 56.842 24.302 56.213 24.3429C55.6141 24.3949 55.0237 24.6548 54.4421 25.1224C53.9015 25.5711 53.4375 26.3209 53.05 27.3718C52.6626 28.4226 52.5233 29.3092 52.6322 30.0314C52.7822 30.7347 53.0681 31.3006 53.4899 31.7289C53.9418 32.1684 54.423 32.4822 54.9334 32.6704ZM86.6302 47.9376C84.6786 47.2181 83.1657 46.2339 82.0913 44.9852C81.058 43.7175 80.5116 42.1007 80.452 40.1347C80.3924 38.1687 80.8884 35.7595 81.94 32.9072C82.9916 30.0549 84.1782 27.9003 85.4997 26.4435C86.8212 24.9867 88.2809 24.1266 89.8787 23.863C91.5176 23.5805 93.3129 23.799 95.2645 24.5185C97.216 25.2381 98.7085 26.2317 99.7417 27.4994C100.816 28.7481 101.383 30.3555 101.443 32.3214C101.502 34.2874 101.006 36.6966 99.9547 39.5489C98.9031 42.4012 97.7165 44.5558 96.395 46.0126C95.0735 47.4694 93.5932 48.339 91.9543 48.6215C90.3565 48.8851 88.5818 48.6571 86.6302 47.9376ZM87.7095 45.0102C88.4001 45.2648 89.1041 45.2515 89.8217 44.9704C90.5503 44.6592 91.2972 43.9285 92.0624 42.7781C92.8686 41.6089 93.6979 39.8683 94.5503 37.5564C95.4137 35.2145 95.9127 33.3521 96.0474 31.9694C96.2121 30.5976 96.1127 29.572 95.7494 28.8923C95.3972 28.1826 94.8757 27.7005 94.1852 27.4459C93.5246 27.2024 92.8151 27.2307 92.0564 27.5308C91.3389 27.8119 90.5825 28.5221 89.7873 29.6614C89.0221 30.8117 88.2078 32.5578 87.3444 34.8997C86.4921 37.2116 85.978 39.0684 85.8023 40.4702C85.6676 41.8529 85.7764 42.8992 86.1287 43.6088C86.522 44.2996 87.049 44.7667 87.7095 45.0102ZM95.2291 58.0142L98.8821 48.1062L100.909 48.8534C101.569 48.4489 102.272 47.8383 103.017 47.0214C103.791 46.2156 104.511 45.0487 105.177 43.5206L110.668 30.7091L125.53 36.1885L118.473 55.329L121.175 56.3253L117.522 66.2333L114.144 64.988C113.982 64.0413 113.94 62.9517 114.02 61.719C114.129 60.4974 114.373 59.1889 114.751 57.7935L102.816 53.3934C102.198 54.7002 101.519 55.8482 100.779 56.8373C100.069 57.8376 99.345 58.645 98.6069 59.2596L95.2291 58.0142ZM106.313 50.8459L113.069 53.3365L118.88 37.5737L114.647 36.0129L110.581 45.5131C109.916 47.0412 109.196 48.2081 108.421 49.0139C107.676 49.8308 106.974 50.4415 106.313 50.8459ZM123.995 61.202L132.298 38.6836L137.702 40.6762L134.215 50.1339L140.295 52.3754L143.782 42.9177L149.186 44.9103L140.884 67.4286L135.48 65.4361L139.05 55.7532L132.97 53.5116L129.4 63.1945L123.995 61.202ZM154.449 72.9413C152.497 72.2218 150.984 71.2376 149.91 69.9889C148.877 68.7212 148.33 67.1044 148.271 65.1384C148.211 63.1724 148.707 60.7632 149.759 57.9109C150.81 55.0586 151.997 52.904 153.319 51.4472C154.64 49.9905 156.1 49.1303 157.698 48.8667C159.336 48.5842 161.132 48.8027 163.083 49.5222C165.035 50.2418 166.527 51.2354 167.561 52.5031C168.635 53.7518 169.202 55.3592 169.262 57.3252C169.321 59.2912 168.825 61.7003 167.773 64.5526C166.722 67.4049 165.535 69.5595 164.214 71.0163C162.892 72.4731 161.412 73.3427 159.773 73.6252C158.175 73.8888 156.401 73.6608 154.449 72.9413ZM155.528 70.0139C156.219 70.2685 156.923 70.2552 157.641 69.9741C158.369 69.6629 159.116 68.9322 159.881 67.7819C160.687 66.6126 161.517 64.872 162.369 62.5601C163.233 60.2182 163.732 58.3559 163.866 56.9731C164.031 55.6014 163.932 54.5757 163.568 53.896C163.216 53.1864 162.695 52.7042 162.004 52.4496C161.343 52.2061 160.634 52.2344 159.875 52.5345C159.158 52.8156 158.401 53.5258 157.606 54.6651C156.841 55.8154 156.027 57.5615 155.163 59.9034C154.311 62.2153 153.797 64.0721 153.621 65.4739C153.486 66.8567 153.595 67.9029 153.948 68.6126C154.341 69.3033 154.868 69.7704 155.528 70.0139ZM167.697 77.314L177.575 55.3768L183.43 57.5353L183.455 73.1478L183.635 73.2142L193.788 61.3543L199.643 63.5129L192.917 86.6124L187.738 84.7029L191.978 70.151L191.798 70.0846L183.804 79.4156L179.301 77.7552L179.277 65.4686L179.097 65.4022L172.876 79.2234L167.697 77.314ZM19.8516 81.9363C17.7499 81.1615 16.1318 80.1386 14.9974 78.8677C13.9041 77.5779 13.3126 75.9444 13.223 73.9674C13.1634 72.0014 13.6594 69.5922 14.711 66.7399C15.7626 63.8876 16.9492 61.733 18.2707 60.2762C19.5922 58.8194 21.0519 57.9593 22.6497 57.6957C24.2886 57.4132 26.0839 57.6317 28.0355 58.3512C29.1764 58.7719 30.2391 59.266 31.2235 59.8336C32.2079 60.4011 32.9862 60.9268 33.5581 61.4105L32.7279 63.6624L27.7739 61.8359C26.8732 61.5038 25.989 61.4507 25.1213 61.6764C24.2836 61.9133 23.4372 62.5903 22.5819 63.7074C21.7678 64.8056 20.9456 66.4806 20.1154 68.7324C19.2852 70.9842 18.8383 72.7976 18.7748 74.1725C18.7113 75.5474 18.9457 76.6229 19.4781 77.399C20.0516 78.1561 20.8638 78.7284 21.9146 79.1158L26.8687 80.9423L26.0384 83.1941C25.3004 83.1608 24.3728 83.0405 23.2555 82.8332C22.1272 82.6559 20.9925 82.357 19.8516 81.9363ZM35.1429 87.574C33.8819 87.1091 32.7829 86.4822 31.8459 85.6934C30.939 84.9156 30.3584 83.9001 30.1043 82.6468C29.8612 81.3635 30.0994 79.7461 30.8189 77.7945C31.5385 75.8429 32.4017 74.4729 33.4085 73.6845C34.4565 72.8772 35.6079 72.4832 36.8627 72.5024C38.1475 72.5328 39.4955 72.8081 40.9067 73.3283C41.5972 73.5829 42.2412 73.8715 42.8385 74.194C43.4658 74.5276 44.0426 74.8596 44.5687 75.19L45.2329 73.3886C45.8971 71.5871 45.9195 70.2312 45.3002 69.3207C44.6809 68.4103 43.6357 67.6839 42.1645 67.1415L37.6608 65.481L38.491 63.2292C39.2702 63.2436 40.1883 63.3434 41.2456 63.5285C42.3328 63.7248 43.3268 63.9889 44.2275 64.321C46.2692 65.0737 47.8881 65.9093 49.0842 66.8278C50.3214 67.7273 51.0805 68.8598 51.3615 70.2253C51.6536 71.5608 51.4122 73.2794 50.6373 75.3811L44.9919 90.6936L41.1637 89.2822L40.9863 87.682L40.7611 87.599C40.1147 87.8723 39.3142 88.0546 38.3596 88.146C37.4462 88.2185 36.3739 88.0278 35.1429 87.574ZM38.1067 85.0856C38.6772 85.2959 39.2058 85.3885 39.6925 85.3633C40.2204 85.3192 40.6281 85.2308 40.9158 85.0981L43.5725 77.8922L41.0955 76.979C40.5851 76.7908 40.0154 76.7172 39.3864 76.7582C38.7874 76.8102 38.1971 77.07 37.6154 77.5377C37.0748 77.9864 36.6108 78.7361 36.2233 79.787C35.8359 80.8378 35.6966 81.7244 35.8055 82.4466C35.9555 83.1499 36.2414 83.7158 36.6633 84.1442C37.1151 84.5836 37.5963 84.8974 38.1067 85.0856ZM50.829 92.8456L59.1312 70.3273L64.3104 72.2368L59.2461 85.973L59.4713 86.056L70.3903 74.4784L76.2451 76.6369L67.9429 99.1552L62.7637 97.2458L67.9941 83.0592L67.7689 82.9762L56.2334 94.8381L50.829 92.8456ZM68.3762 70.9221C66.905 70.3797 65.7697 69.62 64.9702 68.6432C64.1819 67.6363 63.6306 66.4952 63.3164 65.2197L66.3984 63.7981C66.6827 64.4145 67.0832 65.0397 67.5999 65.6735C68.1576 66.2884 68.8868 66.7619 69.7875 67.094C70.6883 67.4261 71.5353 67.5337 72.3287 67.417C73.1632 67.2812 73.8886 67.0712 74.505 66.7869L75.9266 69.8689C74.8897 70.6462 73.7296 71.1564 72.4463 71.3995C71.2041 71.6236 69.8474 71.4645 68.3762 70.9221ZM76.9397 102.472L83.9965 83.3316L78.367 81.2561L79.6123 77.8784L96.2758 84.0219L95.0305 87.3997L89.4009 85.3242L82.3441 104.465L76.9397 102.472ZM99.7371 111.389C97.4252 110.536 95.657 109.458 94.4325 108.154C93.2191 106.82 92.5676 105.164 92.478 103.187C92.3883 101.21 92.8693 98.7956 93.9209 95.9433C94.9725 93.091 96.1441 90.9309 97.4356 89.4631C98.7571 88.0063 100.187 87.135 101.725 86.8493C103.303 86.5447 104.994 86.7244 106.795 87.3886C108.596 88.0528 109.984 89.0077 110.957 90.2532C111.971 91.4798 112.493 93.0706 112.523 95.0255C112.582 96.9915 112.086 99.4006 111.035 102.253L110.454 103.829L98.7442 99.5121C97.7922 102.094 97.5729 104.077 98.0862 105.46C98.6406 106.824 99.8785 107.86 101.8 108.568L106.754 110.395L105.924 112.647C105.186 112.613 104.258 112.493 103.141 112.286C102.013 112.108 100.878 111.809 99.7371 111.389ZM99.9065 96.3596L106.212 98.6842C106.931 96.7326 107.344 95.1966 107.45 94.0761C107.567 92.9256 107.458 92.0667 107.121 91.4992C106.785 90.9318 106.316 90.5374 105.716 90.316C105.115 90.0946 104.503 90.0905 103.879 90.3037C103.254 90.5169 102.613 91.0991 101.956 92.0504C101.309 92.9716 100.626 94.408 99.9065 96.3596ZM123.095 119.489L134.718 87.9634L140.123 89.9559L135.058 103.692L143.165 106.681L148.229 92.9446L153.634 94.9372L142.011 126.463L136.606 124.47L141.837 110.284L133.73 107.295L128.5 121.482L123.095 119.489ZM153.76 131.306C152.499 130.841 151.4 130.214 150.463 129.426C149.556 128.648 148.975 127.632 148.721 126.379C148.478 125.096 148.716 123.478 149.436 121.527C150.155 119.575 151.019 118.205 152.026 117.417C153.073 116.609 154.225 116.215 155.48 116.235C156.765 116.265 158.113 116.54 159.524 117.06C160.214 117.315 160.858 117.604 161.455 117.926C162.083 118.26 162.66 118.592 163.186 118.922L163.85 117.121C164.514 115.319 164.537 113.963 163.917 113.053C163.298 112.142 162.253 111.416 160.781 110.874L156.278 109.213L157.108 106.961C157.887 106.976 158.805 107.076 159.863 107.261C160.95 107.457 161.944 107.721 162.845 108.053C164.886 108.806 166.505 109.641 167.701 110.56C168.938 111.459 169.698 112.592 169.978 113.957C170.271 115.293 170.029 117.012 169.254 119.113L163.609 134.426L159.781 133.014L159.603 131.414L159.378 131.331C158.732 131.604 157.931 131.787 156.977 131.878C156.063 131.951 154.991 131.76 153.76 131.306ZM156.724 128.818C157.294 129.028 157.823 129.121 158.31 129.095C158.837 129.051 159.245 128.963 159.533 128.83L162.189 121.624L159.712 120.711C159.202 120.523 158.632 120.449 158.003 120.49C157.404 120.542 156.814 120.802 156.232 121.27C155.692 121.719 155.228 122.468 154.84 123.519C154.453 124.57 154.314 125.457 154.422 126.179C154.572 126.882 154.858 127.448 155.28 127.876C155.732 128.316 156.213 128.63 156.724 128.818ZM-35.9309 119.989C-37.8825 119.27 -39.3955 118.286 -40.4698 117.037C-41.5031 115.769 -42.0495 114.152 -42.1091 112.186C-42.1687 110.22 -41.6727 107.811 -40.6211 104.959C-39.5695 102.106 -38.3829 99.9519 -37.0614 98.4951C-35.7399 97.0383 -34.2802 96.1782 -32.6824 95.9146C-31.0435 95.6321 -29.2483 95.8506 -27.2967 96.5701C-25.3451 97.2896 -23.8527 98.2832 -22.8194 99.5509C-21.745 100.8 -21.178 102.407 -21.1184 104.373C-21.0588 106.339 -21.5548 108.748 -22.6065 111.601C-23.6581 114.453 -24.8446 116.607 -26.1661 118.064C-27.4877 119.521 -28.9679 120.391 -30.6068 120.673C-32.2046 120.937 -33.9793 120.709 -35.9309 119.989ZM-34.8516 117.062C-34.1611 117.316 -33.457 117.303 -32.7394 117.022C-32.0108 116.711 -31.2639 115.98 -30.4988 114.83C-29.6925 113.66 -28.8632 111.92 -28.0108 109.608C-27.1474 107.266 -26.6484 105.404 -26.5137 104.021C-26.3491 102.649 -26.4484 101.624 -26.8117 100.944C-27.164 100.234 -27.6854 99.7521 -28.3759 99.4975C-29.0365 99.254 -29.7461 99.2823 -30.5047 99.5823C-31.2223 99.8635 -31.9786 100.574 -32.7738 101.713C-33.539 102.863 -34.3533 104.609 -35.2167 106.951C-36.0691 109.263 -36.5831 111.12 -36.7589 112.522C-36.8935 113.905 -36.7847 114.951 -36.4324 115.66C-36.0391 116.351 -35.5122 116.818 -34.8516 117.062ZM-27.332 130.066L-23.6791 120.158L-21.6524 120.905C-20.9917 120.501 -20.2891 119.89 -19.5446 119.073C-18.77 118.267 -18.0499 117.1 -17.3842 115.572L-11.8934 102.761L2.96868 108.24L-4.08814 127.381L-1.38594 128.377L-5.03888 138.285L-8.41663 137.04C-8.57919 136.093 -8.62082 135.003 -8.54151 133.771C-8.43218 132.549 -8.1885 131.241 -7.81047 129.845L-19.7452 125.445C-20.3634 126.752 -21.0424 127.9 -21.7823 128.889C-22.4921 129.889 -23.2161 130.697 -23.9543 131.311L-27.332 130.066ZM-16.248 122.897L-9.49253 125.388L-3.68104 109.625L-7.91448 108.064L-11.9798 117.565C-12.6455 119.093 -13.3656 120.26 -14.1402 121.066C-14.8847 121.882 -15.5873 122.493 -16.248 122.897ZM1.43435 133.254L9.73649 110.735L15.1409 112.728L11.654 122.185L17.7339 124.427L21.2208 114.969L26.6252 116.962L18.3231 139.48L12.9187 137.488L16.4886 127.805L10.4087 125.563L6.83874 135.246L1.43435 133.254ZM31.8879 144.993C29.9363 144.273 28.4234 143.289 27.349 142.04C26.3157 140.773 25.7693 139.156 25.7097 137.19C25.6501 135.224 26.1461 132.815 27.1977 129.963C28.2493 127.11 29.4359 124.956 30.7574 123.499C32.0789 122.042 33.5386 121.182 35.1364 120.918C36.7753 120.636 38.5706 120.854 40.5222 121.574C42.4737 122.293 43.9662 123.287 44.9994 124.555C46.0738 125.803 46.6408 127.411 46.7004 129.377C46.76 131.343 46.264 133.752 45.2124 136.604C44.1608 139.457 42.9742 141.611 41.6527 143.068C40.3312 144.525 38.8509 145.394 37.212 145.677C35.6142 145.94 33.8395 145.712 31.8879 144.993ZM32.9672 142.066C33.6578 142.32 34.3618 142.307 35.0794 142.026C35.808 141.715 36.5549 140.984 37.3201 139.833C38.1263 138.664 38.9556 136.924 39.808 134.612C40.6714 132.27 41.1704 130.407 41.3051 129.025C41.4698 127.653 41.3704 126.627 41.0071 125.948C40.6549 125.238 40.1334 124.756 39.4429 124.501C38.7823 124.258 38.0728 124.286 37.3141 124.586C36.5966 124.867 35.8402 125.577 35.045 126.717C34.2798 127.867 33.4655 129.613 32.6021 131.955C31.7498 134.267 31.2357 136.124 31.06 137.525C30.9253 138.908 31.0341 139.954 31.3864 140.664C31.7797 141.355 32.3067 141.822 32.9672 142.066ZM45.1357 149.366L55.0141 127.428L60.8689 129.587L60.8937 145.199L61.0739 145.266L71.2273 133.406L77.0821 135.564L70.3562 158.664L65.177 156.754L69.4166 142.203L69.2364 142.136L61.2431 151.467L56.7395 149.807L56.7162 137.52L56.5361 137.454L50.3149 151.275L45.1357 149.366ZM94.9674 168.249C92.8657 167.474 91.2476 166.452 90.1132 165.181C89.0199 163.891 88.4284 162.257 88.3388 160.28C88.2792 158.314 88.7752 155.905 89.8268 153.053C90.8784 150.201 92.065 148.046 93.3865 146.589C94.708 145.132 96.1677 144.272 97.7655 144.009C99.4044 143.726 101.2 143.945 103.151 144.664C104.292 145.085 105.355 145.579 106.339 146.146C107.324 146.714 108.102 147.24 108.674 147.723L107.844 149.975L102.89 148.149C101.989 147.817 101.105 147.764 100.237 147.989C99.3994 148.226 98.553 148.903 97.6977 150.02C96.8836 151.119 96.0614 152.794 95.2312 155.045C94.401 157.297 93.9541 159.111 93.8906 160.485C93.827 161.86 94.0615 162.936 94.5939 163.712C95.1674 164.469 95.9795 165.041 97.0304 165.429L101.984 167.255L101.154 169.507C100.416 169.474 99.4885 169.353 98.3713 169.146C97.2429 168.969 96.1083 168.67 94.9674 168.249ZM110.259 173.887C108.998 173.422 107.899 172.795 106.962 172.006C106.055 171.229 105.474 170.213 105.22 168.96C104.977 167.676 105.215 166.059 105.935 164.107C106.654 162.156 107.517 160.786 108.524 159.997C109.572 159.19 110.724 158.796 111.978 158.815C113.263 158.846 114.611 159.121 116.022 159.641C116.713 159.896 117.357 160.184 117.954 160.507C118.582 160.841 119.158 161.173 119.685 161.503L120.349 159.702C121.013 157.9 121.035 156.544 120.416 155.634C119.797 154.723 118.751 153.997 117.28 153.454L112.777 151.794L113.607 149.542C114.386 149.557 115.304 149.656 116.361 149.841C117.449 150.038 118.443 150.302 119.343 150.634C121.385 151.387 123.004 152.222 124.2 153.141C125.437 154.04 126.196 155.173 126.477 156.538C126.769 157.874 126.528 159.592 125.753 161.694L120.108 177.006L116.28 175.595L116.102 173.995L115.877 173.912C115.23 174.185 114.43 174.368 113.475 174.459C112.562 174.531 111.49 174.341 110.259 173.887ZM113.222 171.399C113.793 171.609 114.322 171.701 114.808 171.676C115.336 171.632 115.744 171.544 116.032 171.411L118.688 164.205L116.211 163.292C115.701 163.104 115.131 163.03 114.502 163.071C113.903 163.123 113.313 163.383 112.731 163.851C112.191 164.299 111.727 165.049 111.339 166.1C110.952 167.151 110.812 168.037 110.921 168.76C111.071 169.463 111.357 170.029 111.779 170.457C112.231 170.897 112.712 171.21 113.222 171.399ZM125.945 179.159L134.247 156.64L139.426 158.55L134.362 172.286L134.587 172.369L145.506 160.791L151.361 162.95L143.059 185.468L137.879 183.559L143.11 169.372L142.885 169.289L131.349 181.151L125.945 179.159ZM143.492 157.235C142.021 156.693 140.885 155.933 140.086 154.956C139.298 153.949 138.746 152.808 138.432 151.533L141.514 150.111C141.799 150.727 142.199 151.353 142.716 151.986C143.273 152.601 144.003 153.075 144.903 153.407C145.804 153.739 146.651 153.847 147.444 153.73C148.279 153.594 149.004 153.384 149.621 153.1L151.042 156.182C150.005 156.959 148.845 157.469 147.562 157.712C146.32 157.937 144.963 157.777 143.492 157.235ZM152.055 188.785L159.112 169.645L153.483 167.569L154.728 164.191L171.392 170.335L170.146 173.713L164.517 171.637L157.46 190.778L152.055 188.785ZM174.853 197.702C172.541 196.849 170.773 195.771 169.548 194.467C168.335 193.133 167.683 191.477 167.594 189.5C167.504 187.523 167.985 185.109 169.037 182.256C170.088 179.404 171.26 177.244 172.551 175.776C173.873 174.319 175.303 173.448 176.84 173.162C178.419 172.858 180.109 173.037 181.911 173.702C183.712 174.366 185.1 175.321 186.073 176.566C187.087 177.793 187.609 179.383 187.639 181.338C187.698 183.304 187.202 185.714 186.151 188.566L185.569 190.142L173.86 185.825C172.908 188.407 172.689 190.39 173.202 191.773C173.756 193.137 174.994 194.173 176.916 194.881L181.87 196.708L181.04 198.96C180.302 198.926 179.374 198.806 178.257 198.599C177.128 198.421 175.994 198.122 174.853 197.702ZM175.022 182.672L181.327 184.997C182.047 183.046 182.46 181.509 182.566 180.389C182.683 179.239 182.573 178.38 182.237 177.812C181.9 177.245 181.432 176.85 180.832 176.629C180.231 176.408 179.619 176.403 178.994 176.617C178.37 176.83 177.729 177.412 177.071 178.363C176.425 179.285 175.742 180.721 175.022 182.672Z" fill="white"/>
</g>
<defs>
<filter id="filter0_d_20_2" x="-48" y="-49" width="311" height="311" filterUnits="userSpaceOnUse" color-interpolation-filters="sRGB">
<feFlood flood-opacity="0" result="BackgroundImageFix"/>
<feColorMatrix in="SourceAlpha" type="matrix" values="0 0 0 0 0 0 0 0 0 0 0 0 0 0 0 0 0 0 127 0" result="hardAlpha"/>
<feOffset dx="3" dy="4"/>
<feGaussianBlur stdDeviation="2"/>
<feComposite in2="hardAlpha" operator="out"/>
<feColorMatrix type="matrix" values="0 0 0 0 0 0 0 0 0 0 0 0 0 0 0 0 0 0 0.25 0"/>
<feBlend mode="normal" in2="BackgroundImageFix" result="effect1_dropShadow_20_2"/>
<feBlend mode="normal" in="SourceGraphic" in2="effect1_dropShadow_20_2" result="shape"/>
</filter>
<clipPath id="clip0_20_2">
<rect width="191" height="191" fill="white"/>
</clipPath>
</defs>
</svg>
