<svg width="293" height="293" viewBox="0 0 293 293" fill="none" xmlns="http://www.w3.org/2000/svg">
<g clip-path="url(#clip0_19_10)">
<circle cx="121" cy="184" r="271" fill="#FF4940"/>
<path d="M52.3768 55.5L62.2768 17H70.5268L80.4268 55.5H73.5518L71.1318 45.875H61.6718L59.2518 55.5H52.3768ZM62.5518 41.475H70.1968L66.5118 25.8H66.2918L62.5518 41.475Z" fill="white"/>
<path d="M84.8289 55.5V28H91.4289V39.55H98.8539V28H105.454V55.5H98.8539V43.675H91.4289V55.5H84.8289Z" fill="white"/>
<path d="M112.597 55.5V28H118.922V44.775H119.197L126.347 28H133.497V55.5H127.172V38.175H126.897L119.197 55.5H112.597Z" fill="white"/>
<path d="M139.81 55.5L141.735 28H148.885L155.1 44.775H155.32L161.535 28H168.685L170.61 55.5H164.285L163.075 38.175H162.855L157.96 51.375H152.46L147.565 38.175H147.345L146.135 55.5H139.81Z" fill="white"/>
<path d="M187.943 56.05C185.12 56.05 182.791 55.5917 180.958 54.675C179.125 53.7217 177.768 52.2 176.888 50.11C176.008 48.02 175.568 45.2333 175.568 41.75C175.568 38.2667 175.971 35.48 176.778 33.39C177.622 31.3 178.813 29.7967 180.353 28.88C181.93 27.9267 183.818 27.45 186.018 27.45C188.218 27.45 190.088 27.9267 191.628 28.88C193.205 29.7967 194.396 31.3 195.203 33.39C196.047 35.48 196.468 38.2667 196.468 41.75V43.675H182.168C182.168 46.8283 182.718 49.0467 183.818 50.33C184.955 51.5767 186.697 52.2 189.043 52.2H195.093V54.95C194.286 55.2067 193.242 55.445 191.958 55.665C190.675 55.9217 189.336 56.05 187.943 56.05ZM182.168 39.825H189.868C189.868 37.4417 189.703 35.6267 189.373 34.38C189.043 33.0967 188.585 32.2167 187.998 31.74C187.411 31.2633 186.751 31.025 186.018 31.025C185.285 31.025 184.625 31.2633 184.038 31.74C183.451 32.2167 182.993 33.0967 182.663 34.38C182.333 35.6267 182.168 37.4417 182.168 39.825Z" fill="white"/>
<path d="M215.991 55.5V28H222.316V44.775H222.591L229.741 28H236.891V55.5H230.566V38.175H230.291L222.591 55.5H215.991Z" fill="white"/>
<path d="M0 119.5L1.925 92H9.075L15.29 108.775H15.51L21.725 92H28.875L30.8 119.5H24.475L23.265 102.175H23.045L18.15 115.375H12.65L7.755 102.175H7.535L6.325 119.5H0Z" fill="white"/>
<path d="M44.2836 120.05C42.7436 120.05 41.3136 119.812 39.9936 119.335C38.7103 118.858 37.6836 117.997 36.9136 116.75C36.1436 115.467 35.7586 113.633 35.7586 111.25C35.7586 108.867 36.1436 107.052 36.9136 105.805C37.7203 104.522 38.8019 103.642 40.1586 103.165C41.5519 102.688 43.1103 102.45 44.8336 102.45C45.6769 102.45 46.4836 102.505 47.2536 102.615C48.0603 102.725 48.8119 102.853 49.5086 103V100.8C49.5086 98.6 48.9953 97.1333 47.9686 96.4C46.9419 95.6667 45.5303 95.3 43.7336 95.3H38.2336V92.55C39.0769 92.2567 40.1036 92 41.3136 91.78C42.5603 91.56 43.7336 91.45 44.8336 91.45C47.3269 91.45 49.3986 91.7067 51.0486 92.22C52.7353 92.6967 54.0003 93.6133 54.8436 94.97C55.6869 96.29 56.1086 98.2333 56.1086 100.8V119.5H51.4336L50.6086 117.85H50.3336C49.7469 118.4 48.9586 118.913 47.9686 119.39C47.0153 119.83 45.7869 120.05 44.2836 120.05ZM46.4836 116.2C47.1803 116.2 47.7853 116.09 48.2986 115.87C48.8486 115.613 49.2519 115.357 49.5086 115.1V106.3H46.4836C45.8603 106.3 45.2186 106.447 44.5586 106.74C43.9353 107.033 43.4036 107.547 42.9636 108.28C42.5603 108.977 42.3586 109.967 42.3586 111.25C42.3586 112.533 42.5603 113.542 42.9636 114.275C43.4036 114.972 43.9353 115.467 44.5586 115.76C45.2186 116.053 45.8603 116.2 46.4836 116.2Z" fill="white"/>
<path d="M63.2371 119.5V92H69.8371V103.55H77.2621V92H83.8621V119.5H77.2621V107.675H69.8371V119.5H63.2371Z" fill="white"/>
<path d="M91.0057 119.5V92H108.331V96.125H97.6057V119.5H91.0057Z" fill="white"/>
<path d="M118.512 120.05C116.972 120.05 115.542 119.812 114.222 119.335C112.939 118.858 111.912 117.997 111.142 116.75C110.372 115.467 109.987 113.633 109.987 111.25C109.987 108.867 110.372 107.052 111.142 105.805C111.949 104.522 113.03 103.642 114.387 103.165C115.78 102.688 117.339 102.45 119.062 102.45C119.905 102.45 120.712 102.505 121.482 102.615C122.289 102.725 123.04 102.853 123.737 103V100.8C123.737 98.6 123.224 97.1333 122.197 96.4C121.17 95.6667 119.759 95.3 117.962 95.3H112.462V92.55C113.305 92.2567 114.332 92 115.542 91.78C116.789 91.56 117.962 91.45 119.062 91.45C121.555 91.45 123.627 91.7067 125.277 92.22C126.964 92.6967 128.229 93.6133 129.072 94.97C129.915 96.29 130.337 98.2333 130.337 100.8V119.5H125.662L124.837 117.85H124.562C123.975 118.4 123.187 118.913 122.197 119.39C121.244 119.83 120.015 120.05 118.512 120.05ZM120.712 116.2C121.409 116.2 122.014 116.09 122.527 115.87C123.077 115.613 123.48 115.357 123.737 115.1V106.3H120.712C120.089 106.3 119.447 106.447 118.787 106.74C118.164 107.033 117.632 107.547 117.192 108.28C116.789 108.977 116.587 109.967 116.587 111.25C116.587 112.533 116.789 113.542 117.192 114.275C117.632 114.972 118.164 115.467 118.787 115.76C119.447 116.053 120.089 116.2 120.712 116.2Z" fill="white"/>
<path d="M148.466 119.5L158.366 81H166.616L176.516 119.5H169.641L167.221 109.875H157.761L155.341 119.5H148.466ZM158.641 105.475H166.286L162.601 89.8H162.381L158.641 105.475Z" fill="white"/>
<path d="M180.918 119.5V92H187.518V103.55H194.943V92H201.543V119.5H194.943V107.675H187.518V119.5H180.918Z" fill="white"/>
<path d="M208.686 119.5V92H215.011V108.775H215.286L222.436 92H229.586V119.5H223.261V102.175H222.986L215.286 119.5H208.686Z" fill="white"/>
<path d="M235.898 119.5L237.823 92H244.973L251.188 108.775H251.408L257.623 92H264.773L266.698 119.5H260.373L259.163 102.175H258.943L254.048 115.375H248.548L243.653 102.175H243.433L242.223 119.5H235.898Z" fill="white"/>
<path d="M284.032 120.05C281.209 120.05 278.88 119.592 277.047 118.675C275.214 117.722 273.857 116.2 272.977 114.11C272.097 112.02 271.657 109.233 271.657 105.75C271.657 102.267 272.06 99.48 272.867 97.39C273.71 95.3 274.902 93.7967 276.442 92.88C278.019 91.9267 279.907 91.45 282.107 91.45C284.307 91.45 286.177 91.9267 287.717 92.88C289.294 93.7967 290.485 95.3 291.292 97.39C292.135 99.48 292.557 102.267 292.557 105.75V107.675H278.257C278.257 110.828 278.807 113.047 279.907 114.33C281.044 115.577 282.785 116.2 285.132 116.2H291.182V118.95C290.375 119.207 289.33 119.445 288.047 119.665C286.764 119.922 285.425 120.05 284.032 120.05ZM278.257 103.825H285.957C285.957 101.442 285.792 99.6267 285.462 98.38C285.132 97.0967 284.674 96.2167 284.087 95.74C283.5 95.2633 282.84 95.025 282.107 95.025C281.374 95.025 280.714 95.2633 280.127 95.74C279.54 96.2167 279.082 97.0967 278.752 98.38C278.422 99.6267 278.257 101.442 278.257 103.825Z" fill="white"/>
<path d="M60.3636 183.5V156H66.6886V172.775H66.9636L74.1136 156H81.2636V183.5H74.9386V166.175H74.6636L66.9636 183.5H60.3636Z" fill="white"/>
<path d="M101.326 183.5L103.251 156H110.401L116.616 172.775H116.836L123.051 156H130.201L132.126 183.5H125.801L124.591 166.175H124.371L119.476 179.375H113.976L109.081 166.175H108.861L107.651 183.5H101.326Z" fill="white"/>
<path d="M145.609 184.05C144.069 184.05 142.639 183.812 141.319 183.335C140.036 182.858 139.009 181.997 138.239 180.75C137.469 179.467 137.084 177.633 137.084 175.25C137.084 172.867 137.469 171.052 138.239 169.805C139.046 168.522 140.128 167.642 141.484 167.165C142.878 166.688 144.436 166.45 146.159 166.45C147.003 166.45 147.809 166.505 148.579 166.615C149.386 166.725 150.138 166.853 150.834 167V164.8C150.834 162.6 150.321 161.133 149.294 160.4C148.268 159.667 146.856 159.3 145.059 159.3H139.559V156.55C140.403 156.257 141.429 156 142.639 155.78C143.886 155.56 145.059 155.45 146.159 155.45C148.653 155.45 150.724 155.707 152.374 156.22C154.061 156.697 155.326 157.613 156.169 158.97C157.013 160.29 157.434 162.233 157.434 164.8V183.5H152.759L151.934 181.85H151.659C151.073 182.4 150.284 182.913 149.294 183.39C148.341 183.83 147.113 184.05 145.609 184.05ZM147.809 180.2C148.506 180.2 149.111 180.09 149.624 179.87C150.174 179.613 150.578 179.357 150.834 179.1V170.3H147.809C147.186 170.3 146.544 170.447 145.884 170.74C145.261 171.033 144.729 171.547 144.289 172.28C143.886 172.977 143.684 173.967 143.684 175.25C143.684 176.533 143.886 177.542 144.289 178.275C144.729 178.972 145.261 179.467 145.884 179.76C146.544 180.053 147.186 180.2 147.809 180.2Z" fill="white"/>
<path d="M164.563 183.5V156H171.163V167.55H178.588V156H185.188V183.5H178.588V171.675H171.163V183.5H164.563Z" fill="white"/>
<path d="M192.331 183.5V156H209.656V160.125H198.931V183.5H192.331Z" fill="white"/>
<path d="M219.838 184.05C218.298 184.05 216.868 183.812 215.548 183.335C214.264 182.858 213.238 181.997 212.468 180.75C211.698 179.467 211.313 177.633 211.313 175.25C211.313 172.867 211.698 171.052 212.468 169.805C213.274 168.522 214.356 167.642 215.713 167.165C217.106 166.688 218.664 166.45 220.388 166.45C221.231 166.45 222.038 166.505 222.808 166.615C223.614 166.725 224.366 166.853 225.063 167V164.8C225.063 162.6 224.549 161.133 223.523 160.4C222.496 159.667 221.084 159.3 219.288 159.3H213.788V156.55C214.631 156.257 215.658 156 216.868 155.78C218.114 155.56 219.288 155.45 220.388 155.45C222.881 155.45 224.953 155.707 226.603 156.22C228.289 156.697 229.554 157.613 230.398 158.97C231.241 160.29 231.663 162.233 231.663 164.8V183.5H226.988L226.163 181.85H225.888C225.301 182.4 224.513 182.913 223.523 183.39C222.569 183.83 221.341 184.05 219.838 184.05ZM222.038 180.2C222.734 180.2 223.339 180.09 223.853 179.87C224.403 179.613 224.806 179.357 225.063 179.1V170.3H222.038C221.414 170.3 220.773 170.447 220.113 170.74C219.489 171.033 218.958 171.547 218.518 172.28C218.114 172.977 217.913 173.967 217.913 175.25C217.913 176.533 218.114 177.542 218.518 178.275C218.958 178.972 219.489 179.467 220.113 179.76C220.773 180.053 221.414 180.2 222.038 180.2Z" fill="white"/>
<path d="M52.3768 247.5L62.2768 209H70.5268L80.4268 247.5H73.5518L71.1318 237.875H61.6718L59.2518 247.5H52.3768ZM62.5518 233.475H70.1968L66.5118 217.8H66.2918L62.5518 233.475Z" fill="white"/>
<path d="M84.8289 247.5V220H91.4289V231.55H98.8539V220H105.454V247.5H98.8539V235.675H91.4289V247.5H84.8289Z" fill="white"/>
<path d="M112.597 247.5V220H118.922V236.775H119.197L126.347 220H133.497V247.5H127.172V230.175H126.897L119.197 247.5H112.597Z" fill="white"/>
<path d="M139.81 247.5L141.735 220H148.885L155.1 236.775H155.32L161.535 220H168.685L170.61 247.5H164.285L163.075 230.175H162.855L157.96 243.375H152.46L147.565 230.175H147.345L146.135 247.5H139.81Z" fill="white"/>
<path d="M187.943 248.05C185.12 248.05 182.791 247.592 180.958 246.675C179.125 245.722 177.768 244.2 176.888 242.11C176.008 240.02 175.568 237.233 175.568 233.75C175.568 230.267 175.971 227.48 176.778 225.39C177.622 223.3 178.813 221.797 180.353 220.88C181.93 219.927 183.818 219.45 186.018 219.45C188.218 219.45 190.088 219.927 191.628 220.88C193.205 221.797 194.396 223.3 195.203 225.39C196.047 227.48 196.468 230.267 196.468 233.75V235.675H182.168C182.168 238.828 182.718 241.047 183.818 242.33C184.955 243.577 186.697 244.2 189.043 244.2H195.093V246.95C194.286 247.207 193.242 247.445 191.958 247.665C190.675 247.922 189.336 248.05 187.943 248.05ZM182.168 231.825H189.868C189.868 229.442 189.703 227.627 189.373 226.38C189.043 225.097 188.585 224.217 187.998 223.74C187.411 223.263 186.751 223.025 186.018 223.025C185.285 223.025 184.625 223.263 184.038 223.74C183.451 224.217 182.993 225.097 182.663 226.38C182.333 227.627 182.168 229.442 182.168 231.825Z" fill="white"/>
<path d="M215.991 247.5V220H222.316V236.775H222.591L229.741 220H236.891V247.5H230.566V230.175H230.291L222.591 247.5H215.991Z" fill="white"/>
<path d="M80.4321 311.5L82.3571 284H89.5071L95.7221 300.775H95.9421L102.157 284H109.307L111.232 311.5H104.907L103.697 294.175H103.477L98.5821 307.375H93.0821L88.1871 294.175H87.9671L86.7571 311.5H80.4321Z" fill="white"/>
<path d="M124.716 312.05C123.176 312.05 121.746 311.812 120.426 311.335C119.142 310.858 118.116 309.997 117.346 308.75C116.576 307.467 116.191 305.633 116.191 303.25C116.191 300.867 116.576 299.052 117.346 297.805C118.152 296.522 119.234 295.642 120.591 295.165C121.984 294.688 123.542 294.45 125.266 294.45C126.109 294.45 126.916 294.505 127.686 294.615C128.492 294.725 129.244 294.853 129.941 295V292.8C129.941 290.6 129.427 289.133 128.401 288.4C127.374 287.667 125.962 287.3 124.166 287.3H118.666V284.55C119.509 284.257 120.536 284 121.746 283.78C122.992 283.56 124.166 283.45 125.266 283.45C127.759 283.45 129.831 283.707 131.481 284.22C133.167 284.697 134.432 285.613 135.276 286.97C136.119 288.29 136.541 290.233 136.541 292.8V311.5H131.866L131.041 309.85H130.766C130.179 310.4 129.391 310.913 128.401 311.39C127.447 311.83 126.219 312.05 124.716 312.05ZM126.916 308.2C127.612 308.2 128.217 308.09 128.731 307.87C129.281 307.613 129.684 307.357 129.941 307.1V298.3H126.916C126.292 298.3 125.651 298.447 124.991 298.74C124.367 299.033 123.836 299.547 123.396 300.28C122.992 300.977 122.791 301.967 122.791 303.25C122.791 304.533 122.992 305.542 123.396 306.275C123.836 306.972 124.367 307.467 124.991 307.76C125.651 308.053 126.292 308.2 126.916 308.2Z" fill="white"/>
<path d="M143.669 311.5V284H150.269V295.55H157.694V284H164.294V311.5H157.694V299.675H150.269V311.5H143.669Z" fill="white"/>
<path d="M171.438 311.5V284H188.763V288.125H178.038V311.5H171.438Z" fill="white"/>
<path d="M198.944 312.05C197.404 312.05 195.974 311.812 194.654 311.335C193.371 310.858 192.344 309.997 191.574 308.75C190.804 307.467 190.419 305.633 190.419 303.25C190.419 300.867 190.804 299.052 191.574 297.805C192.381 296.522 193.463 295.642 194.819 295.165C196.213 294.688 197.771 294.45 199.494 294.45C200.338 294.45 201.144 294.505 201.914 294.615C202.721 294.725 203.473 294.853 204.169 295V292.8C204.169 290.6 203.656 289.133 202.629 288.4C201.603 287.667 200.191 287.3 198.394 287.3H192.894V284.55C193.738 284.257 194.764 284 195.974 283.78C197.221 283.56 198.394 283.45 199.494 283.45C201.988 283.45 204.059 283.707 205.709 284.22C207.396 284.697 208.661 285.613 209.504 286.97C210.348 288.29 210.769 290.233 210.769 292.8V311.5H206.094L205.269 309.85H204.994C204.408 310.4 203.619 310.913 202.629 311.39C201.676 311.83 200.448 312.05 198.944 312.05ZM201.144 308.2C201.841 308.2 202.446 308.09 202.959 307.87C203.509 307.613 203.913 307.357 204.169 307.1V298.3H201.144C200.521 298.3 199.879 298.447 199.219 298.74C198.596 299.033 198.064 299.547 197.624 300.28C197.221 300.977 197.019 301.967 197.019 303.25C197.019 304.533 197.221 305.542 197.624 306.275C198.064 306.972 198.596 307.467 199.219 307.76C199.879 308.053 200.521 308.2 201.144 308.2Z" fill="white"/>
</g>
<defs>
<clipPath id="clip0_19_10">
<rect width="293" height="293" fill="white"/>
</clipPath>
</defs>
</svg>
